<?xml version="1.0" encoding="UTF-8" standalone="no"?>
<!-- Created with Inkscape (http://www.inkscape.org/) -->

<svg
   width="200mm"
   height="200mm"
   viewBox="0 0 200 200"
   version="1.1"
   id="svg5"
   inkscape:version="1.1.1 (3bf5ae0d25, 2021-09-20)"
   sodipodi:docname="full_screen.svg"
   xmlns:inkscape="http://www.inkscape.org/namespaces/inkscape"
   xmlns:sodipodi="http://sodipodi.sourceforge.net/DTD/sodipodi-0.dtd"
   xmlns="http://www.w3.org/2000/svg"
   xmlns:svg="http://www.w3.org/2000/svg">
  <sodipodi:namedview
     id="namedview7"
     pagecolor="#ffffff"
     bordercolor="#999999"
     borderopacity="1"
     inkscape:pageshadow="0"
     inkscape:pageopacity="0"
     inkscape:pagecheckerboard="0"
     inkscape:document-units="mm"
     showgrid="true"
     inkscape:zoom="0.77682379"
     inkscape:cx="290.28462"
     inkscape:cy="372.67139"
     inkscape:window-width="1858"
     inkscape:window-height="1057"
     inkscape:window-x="54"
     inkscape:window-y="-8"
     inkscape:window-maximized="1"
     inkscape:current-layer="layer1">
    <inkscape:grid
       type="xygrid"
       id="grid824" />
  </sodipodi:namedview>
  <defs
     id="defs2" />
  <g
     inkscape:label="Layer 1"
     inkscape:groupmode="layer"
     id="layer1">
    <g
       id="g8233"
       transform="translate(-0.5416665,-0.541492)">
      <path
         style="fill:#ffffff;fill-opacity:1;stroke:#000000;stroke-width:18;stroke-linecap:round;stroke-linejoin:round;stroke-miterlimit:4;stroke-dasharray:none;stroke-opacity:1"
         d="m 190.5,127 v 37.04166 c 0,0 0,26.45834 -26.45834,26.45834 -26.45833,0 -37.04166,0 -37.04166,0 v -31.75 h 31.75 V 127 Z"
         id="path6996" />
      <path
         style="fill:#ffffff;fill-opacity:1;stroke:#000000;stroke-width:18;stroke-linecap:round;stroke-linejoin:round;stroke-miterlimit:4;stroke-dasharray:none;stroke-opacity:1"
         d="M 190.5,74.083332 V 37.041666 c 0,0 0,-26.458333 -26.45834,-26.458333 -26.45833,0 -37.04166,0 -37.04166,0 v 31.75 h 31.75 v 31.749999 h 31.75"
         id="path7245" />
      <path
         style="fill:#ffffff;fill-opacity:1;stroke:#000000;stroke-width:18;stroke-linecap:round;stroke-linejoin:round;stroke-miterlimit:4;stroke-dasharray:none;stroke-opacity:1"
         d="M 74.083332,10.583333 H 37.041666 c 0,0 -26.458333,0 -26.458333,26.458333 0,26.458333 0,37.041666 0,37.041666 h 31.75 V 42.333333 h 31.749999 z"
         id="path7665" />
      <path
         style="fill:#ffffff;fill-opacity:1;stroke:#000000;stroke-width:18;stroke-linecap:round;stroke-linejoin:round;stroke-miterlimit:4;stroke-dasharray:none;stroke-opacity:1"
         d="m 10.583333,127 v 37.04166 c 0,0 0,26.45834 26.458333,26.45834 26.458333,0 37.041666,0 37.041666,0 V 158.75 H 42.333333 V 127 Z"
         id="path7924" />
    </g>
  </g>
</svg>
